<svg width="15" height="16" viewBox="0 0 15 16" fill="none" xmlns="http://www.w3.org/2000/svg">
<path d="M7.5 4.09766C5.38306 4.09766 3.62903 5.82145 3.62903 7.96862C3.62903 10.1158 5.35282 11.8396 7.5 11.8396C9.64717 11.8396 11.371 10.0856 11.371 7.96862C11.371 5.85169 9.61693 4.09766 7.5 4.09766ZM7.5 10.4485C6.13911 10.4485 5.02016 9.32951 5.02016 7.96862C5.02016 6.60774 6.13911 5.48878 7.5 5.48878C8.86088 5.48878 9.97984 6.60774 9.97984 7.96862C9.97984 9.32951 8.86088 10.4485 7.5 10.4485Z" fill="#8B1B1D"/>
<path d="M11.5225 4.88489C12.0069 4.88489 12.3995 4.49224 12.3995 4.00788C12.3995 3.52351 12.0069 3.13086 11.5225 3.13086C11.0382 3.13086 10.6455 3.52351 10.6455 4.00788C10.6455 4.49224 11.0382 4.88489 11.5225 4.88489Z" fill="#8B1B1D"/>
<path d="M13.7903 1.73992C13.004 0.923387 11.8851 0.5 10.6149 0.5H4.38508C1.75403 0.5 0 2.25403 0 4.88508V11.0847C0 12.3851 0.423387 13.504 1.27016 14.3206C2.08669 15.1069 3.1754 15.5 4.41532 15.5H10.5847C11.8851 15.5 12.9738 15.0766 13.7601 14.3206C14.5766 13.5343 15 12.4153 15 11.1149V4.88508C15 3.61492 14.5766 2.52621 13.7903 1.73992ZM13.6694 11.1149C13.6694 12.0524 13.3367 12.8085 12.7923 13.3226C12.248 13.8367 11.4919 14.1089 10.5847 14.1089H4.41532C3.50806 14.1089 2.75202 13.8367 2.20766 13.3226C1.66331 12.7782 1.39113 12.0222 1.39113 11.0847V4.88508C1.39113 3.97782 1.66331 3.22177 2.20766 2.67742C2.72177 2.16331 3.50806 1.89113 4.41532 1.89113H10.6452C11.5524 1.89113 12.3085 2.16331 12.8528 2.70766C13.3669 3.25202 13.6694 4.00806 13.6694 4.88508V11.1149Z" fill="#8B1B1D"/>
</svg>
