<svg width="14" height="15" viewBox="0 0 14 15" fill="none" xmlns="http://www.w3.org/2000/svg">
<path fill-rule="evenodd" clip-rule="evenodd" d="M3.00098 14.5H0.000976562V5.5H3.00098V14.5Z" fill="#8B1B1D"/>
<path fill-rule="evenodd" clip-rule="evenodd" d="M1.49206 3.5H1.47501C0.579749 3.5 0.000976562 2.83303 0.000976562 1.99948C0.000976562 1.14831 0.597377 0.5 1.50963 0.5C2.42188 0.5 2.98367 1.14831 3.00098 1.99948C3.00098 2.83303 2.42188 3.5 1.49206 3.5Z" fill="#8B1B1D"/>
<path fill-rule="evenodd" clip-rule="evenodd" d="M14.0009 14.4998H11.0529V9.79535C11.0529 8.61371 10.6263 7.80738 9.55911 7.80738C8.74465 7.80738 8.25953 8.35096 8.04647 8.87598C7.96852 9.06414 7.94938 9.3263 7.94938 9.58911V14.5H5.00098C5.00098 14.5 5.03983 6.53183 5.00098 5.70672H7.94938V6.95221C8.34066 6.35348 9.04144 5.5 10.6067 5.5C12.5466 5.5 14.001 6.75705 14.001 9.45797L14.0009 14.4998Z" fill="#8B1B1D"/>
</svg>
