<svg width="212" height="47" viewBox="0 0 212 47" fill="none" xmlns="http://www.w3.org/2000/svg">
<g clip-path="url(#clip0_36_1093)">
<path d="M62.9187 10.8398H68.5089L71.0016 28.6808H71.0731L73.5658 10.8398H79.156V35.7673H75.4523V16.8931H75.3807L72.5325 35.7662H69.2559L66.4077 16.8931H66.3361V35.7662H62.9175V10.8398H62.9187Z" fill="#B76268"/>
<path d="M82.077 10.8398H92.7598V14.4004H85.9943V20.9882H91.371V24.5488H85.9943V32.2056H92.7598V35.7662H82.077V10.8398Z" fill="#B76268"/>
<path d="M95.0031 10.8398H100.986C102.932 10.8398 104.392 11.3621 105.366 12.4065C106.339 13.451 106.827 14.9831 106.827 17.0004V29.6067C106.827 31.6252 106.34 33.1561 105.366 34.2006C104.392 35.2451 102.933 35.7673 100.986 35.7673H95.0031V10.8398ZM100.914 32.2056C101.555 32.2056 102.047 32.0155 102.392 31.6364C102.735 31.2573 102.908 30.6389 102.908 29.7845V16.8226C102.908 15.9683 102.736 15.351 102.392 14.9708C102.047 14.5917 101.555 14.4004 100.914 14.4004H98.9204V32.2056H100.914Z" fill="#B76268"/>
<path d="M110.689 34.5206C109.704 33.4526 109.211 31.9452 109.211 29.9983V16.6092C109.211 14.6634 109.703 13.1548 110.689 12.0869C111.674 11.0189 113.105 10.4844 114.98 10.4844C116.855 10.4844 118.286 11.0189 119.271 12.0869C120.256 13.1548 120.748 14.6634 120.748 16.6092V19.2438H117.044V16.3598C117.044 14.8166 116.391 14.045 115.086 14.045C113.78 14.045 113.128 14.8166 113.128 16.3598V30.2834C113.128 31.8032 113.781 32.5625 115.086 32.5625C116.391 32.5625 117.044 31.8032 117.044 30.2834V26.4735H120.748V29.9983C120.748 31.9452 120.255 33.4526 119.271 34.5206C118.286 35.5885 116.855 36.1231 114.98 36.1231C113.105 36.1231 111.673 35.5885 110.689 34.5206Z" fill="black"/>
<path d="M123.099 10.8398H128.904C130.921 10.8398 132.394 11.3084 133.32 12.2466C134.246 13.1849 134.709 14.6274 134.709 16.5732V18.1042C134.709 20.6918 133.854 22.3301 132.144 23.0179V23.0894C133.094 23.3746 133.765 23.9561 134.156 24.8339C134.548 25.7129 134.743 26.8882 134.743 28.3599V32.7402C134.743 33.4525 134.767 34.0284 134.815 34.4668C134.862 34.9062 134.98 35.339 135.17 35.7662H131.182C131.04 35.3625 130.943 34.9823 130.896 34.6267C130.848 34.2711 130.825 33.6292 130.825 32.7032V28.1463C130.825 27.0068 130.64 26.2117 130.272 25.761C129.904 25.3103 129.269 25.0844 128.367 25.0844H127.014V35.7673H123.096V10.8398H123.099ZM128.441 21.5227C129.223 21.5227 129.812 21.3214 130.203 20.9177C130.594 20.514 130.79 19.8375 130.79 18.8881V16.9646C130.79 16.0622 130.63 15.4102 130.309 15.0065C129.988 14.6028 129.484 14.4016 128.796 14.4016H127.016V21.5238H128.441V21.5227Z" fill="black"/>
<path d="M138.696 34.4849C137.675 33.3935 137.165 31.8503 137.165 29.8553V16.7513C137.165 14.7574 137.675 13.2142 138.696 12.1217C139.717 11.0302 141.189 10.4834 143.112 10.4834C145.036 10.4834 146.508 11.0302 147.528 12.1217C148.549 13.2142 149.059 14.7563 149.059 16.7513V29.8553C149.059 31.8492 148.548 33.3924 147.528 34.4849C146.508 35.5775 145.036 36.1232 143.112 36.1232C141.189 36.1232 139.716 35.5775 138.696 34.4849ZM145.141 30.1047V16.502C145.141 14.8637 144.464 14.0451 143.111 14.0451C141.758 14.0451 141.082 14.8637 141.082 16.502V30.1047C141.082 31.7429 141.758 32.5615 143.111 32.5615C144.464 32.5615 145.141 31.7429 145.141 30.1047Z" fill="black"/>
<path d="M152.477 34.5028C151.503 33.4226 151.016 31.8738 151.016 29.8553V28.4306H154.72V30.1404C154.72 31.7552 155.397 32.5615 156.75 32.5615C157.414 32.5615 157.918 32.3658 158.263 31.9744C158.607 31.583 158.779 30.9478 158.779 30.0689C158.779 29.0244 158.542 28.1052 158.067 27.309C157.592 26.5139 156.714 25.5589 155.432 24.4428C153.818 23.0181 152.69 21.731 152.05 20.5792C151.409 19.4285 151.088 18.1279 151.088 16.6798C151.088 14.7094 151.587 13.184 152.583 12.1038C153.581 11.0235 155.028 10.4834 156.928 10.4834C158.803 10.4834 160.222 11.0235 161.183 12.1038C162.144 13.184 162.625 14.7328 162.625 16.7513V17.7835H158.921V16.502C158.921 15.6476 158.755 15.0236 158.423 14.6322C158.091 14.2408 157.604 14.0451 156.962 14.0451C155.656 14.0451 155.004 14.8402 155.004 16.4304C155.004 17.3328 155.247 18.1749 155.734 18.9588C156.221 19.7427 157.105 20.6921 158.387 21.8071C160.025 23.2317 161.152 24.5256 161.77 25.6886C162.387 26.8516 162.696 28.217 162.696 29.7837C162.696 31.8257 162.191 33.3924 161.183 34.4838C160.173 35.5764 158.708 36.1221 156.784 36.1221C154.886 36.1232 153.45 35.5831 152.477 34.5028Z" fill="black"/>
<path d="M165.724 34.5028C164.75 33.4226 164.263 31.8738 164.263 29.8553V28.4306H167.967V30.1404C167.967 31.7552 168.644 32.5615 169.997 32.5615C170.661 32.5615 171.165 32.3658 171.51 31.9744C171.854 31.583 172.027 30.9478 172.027 30.0689C172.027 29.0244 171.789 28.1052 171.314 27.309C170.839 26.5139 169.961 25.5589 168.68 24.4428C167.065 23.0181 165.938 21.731 165.297 20.5792C164.656 19.4285 164.335 18.1279 164.335 16.6798C164.335 14.7094 164.834 13.184 165.83 12.1038C166.828 11.0235 168.275 10.4834 170.175 10.4834C172.05 10.4834 173.469 11.0235 174.43 12.1038C175.391 13.184 175.872 14.7328 175.872 16.7513V17.7835H172.169V16.502C172.169 15.6476 172.002 15.0236 171.67 14.6322C171.338 14.2408 170.851 14.0451 170.209 14.0451C168.903 14.0451 168.251 14.8402 168.251 16.4304C168.251 17.3328 168.494 18.1749 168.981 18.9588C169.468 19.7427 170.353 20.6921 171.634 21.8071C173.272 23.2317 174.4 24.5256 175.017 25.6886C175.634 26.8516 175.943 28.217 175.943 29.7837C175.943 31.8257 175.438 33.3924 174.43 34.4838C173.42 35.5764 171.955 36.1221 170.032 36.1221C168.133 36.1232 166.697 35.5831 165.724 34.5028Z" fill="black"/>
<path d="M178.187 10.8398H182.104V35.7673H178.187V10.8398Z" fill="black"/>
<path d="M185.023 10.8398H189.937L193.747 25.7599H193.818V10.8398H197.309V35.7673H193.285L188.585 17.5707H188.513V35.7673H185.023V10.8398Z" fill="black"/>
<path d="M201.439 34.5028C200.442 33.4226 199.944 31.8738 199.944 29.8553V16.7513C199.944 14.734 200.443 13.1852 201.439 12.1038C202.437 11.0235 203.884 10.4834 205.784 10.4834C207.683 10.4834 209.131 11.0235 210.128 12.1038C211.126 13.184 211.625 14.7328 211.625 16.7513V18.8884H207.921V16.5031C207.921 14.8648 207.244 14.0462 205.891 14.0462C204.538 14.0462 203.862 14.8648 203.862 16.5031V30.1416C203.862 31.7564 204.538 32.5626 205.891 32.5626C207.244 32.5626 207.921 31.7564 207.921 30.1416V25.2625H205.963V21.7019H211.625V29.8564C211.625 31.8749 211.126 33.4237 210.128 34.504C209.131 35.5842 207.683 36.1243 205.784 36.1243C203.884 36.1232 202.436 35.5831 201.439 34.5028Z" fill="black"/>
<path d="M24.8369 40.4478H21.4787C19.5284 40.4478 17.945 38.8676 17.945 36.9174V31.1985C22.9694 28.9373 26.8185 24.5325 28.3304 19.1468C27.1551 21.9571 25.3155 24.4184 23.0119 26.3396C20.6411 28.3145 17.6363 29.3645 14.5532 29.3645H10.3932C8.44298 29.3645 6.86285 27.7822 6.86285 25.8308V22.4726C6.86285 20.5223 8.44298 18.9388 10.3932 18.9388H17.9461V11.3882C17.9461 9.43573 19.5284 7.85449 21.4798 7.85449H24.838C26.7883 7.85449 28.3718 9.43462 28.3718 11.3849V18.9377H35.9246C37.8749 18.9377 39.455 20.5201 39.455 22.4715V25.8297C39.455 27.7799 37.8749 29.3634 35.9246 29.3634H28.3706V36.9162C28.3706 38.8676 26.7872 40.4478 24.8369 40.4478Z" fill="url(#paint0_linear_36_1093)"/>
<path d="M17.9461 26.6388L15.3931 18.9395H17.9461V26.6388Z" fill="#561116"/>
<path d="M47.0011 23.4536C47.0268 36.4323 36.5262 46.9743 23.5475 47.0011C10.5688 47.0268 0.0257217 36.5262 1.37269e-06 23.5475C-0.025719 10.5688 10.4749 0.0257203 23.4536 0C23.6649 0 23.8763 0.00223655 24.0865 0.00670965C12.0807 0.35673 2.46804 10.211 2.49264 22.2951C2.51724 34.5849 12.5001 44.5286 24.7899 44.504C36.874 44.4794 46.6902 34.8276 46.9911 22.8206C46.9966 23.0309 47 23.2422 47.0011 23.4536Z" fill="url(#paint1_linear_36_1093)"/>
<path d="M47.6251 20.0159C47.6251 20.0159 49.0062 18.3441 49.0062 16.7449C49.0062 16.7449 50.0965 19.1436 48.3151 21.3969C48.3542 21.3466 48.4828 21.3086 48.5376 21.2762C48.7345 21.1621 48.9246 21.0346 49.1068 20.8982C49.6816 20.4688 50.1893 19.941 50.5673 19.3281C51.0526 18.542 51.3523 17.5982 51.2897 16.6577C51.2249 15.6803 50.6914 14.836 50.3459 13.9425C50.0384 13.1497 49.7499 12.3434 49.5441 11.5181C49.4602 11.1781 49.3853 10.8315 49.3618 10.4815C49.3495 10.3048 49.3081 9.91114 49.4468 9.76465C49.4457 9.76577 43.8442 15.6535 47.6251 20.0159Z" fill="#8C1A1E"/>
<path d="M48.0612 25.3953C48.0612 25.3953 50.1692 25.686 51.9137 23.5781C51.9137 23.5781 51.5503 26.1222 48.0612 26.1222C48.0612 26.1222 53.8774 27.6486 53.514 21.3975C53.0633 21.6043 52.607 21.7989 52.1474 21.9846C51.7762 22.1344 51.4015 22.2787 51.0202 22.4039C50.2687 22.651 49.5407 22.7058 48.9123 23.237C48.2715 23.7783 47.9774 24.5644 48.0612 25.3953Z" fill="#B76268"/>
<path d="M41.5182 19.4336C41.5182 19.4336 47.7705 19.5063 45.8795 24.8863C45.8795 24.8863 47.0347 22.4149 43.8767 20.8885C43.8767 20.8885 45.7341 22.633 45.3707 24.4502C45.3561 24.5251 44.2871 24.1236 44.2244 24.0923C43.8163 23.8922 43.4226 23.6048 43.1431 23.2324C42.8277 22.813 42.7506 22.3545 42.6656 21.8513C42.5247 21.0182 42.2697 19.9346 41.5182 19.4336Z" fill="#B76268"/>
</g>
<defs>
<linearGradient id="paint0_linear_36_1093" x1="33.8864" y1="24.1516" x2="-5.24192" y2="24.1516" gradientUnits="userSpaceOnUse">
<stop stop-color="#B76268"/>
<stop offset="0.5335" stop-color="#7C1316"/>
<stop offset="1" stop-color="#8C191D"/>
</linearGradient>
<linearGradient id="paint1_linear_36_1093" x1="1.37269e-06" y1="23.5003" x2="47.0007" y2="23.5003" gradientUnits="userSpaceOnUse">
<stop stop-color="#B76268"/>
<stop offset="0.5335" stop-color="#7C1316"/>
<stop offset="1" stop-color="#8C191D"/>
</linearGradient>
<clipPath id="clip0_36_1093">
<rect width="211.624" height="47" fill="white"/>
</clipPath>
</defs>
</svg>
