<svg width="14" height="17" viewBox="0 0 14 17" fill="none" xmlns="http://www.w3.org/2000/svg">
<path d="M8 0.5H9.98C10.124 1.215 10.52 2.117 11.215 3.012C11.895 3.889 12.797 4.5 14 4.5V6.5C12.247 6.5 10.93 5.686 10 4.671V11.5C10 12.4889 9.70676 13.4556 9.15735 14.2779C8.60794 15.1001 7.82705 15.741 6.91342 16.1194C5.99979 16.4978 4.99446 16.5969 4.02455 16.4039C3.05465 16.211 2.16373 15.7348 1.46447 15.0355C0.765206 14.3363 0.289002 13.4454 0.0960759 12.4755C-0.0968503 11.5055 0.00216642 10.5002 0.380605 9.58658C0.759043 8.67295 1.39991 7.89206 2.22215 7.34265C3.0444 6.79324 4.0111 6.5 5 6.5V8.5C4.40666 8.5 3.82664 8.67595 3.33329 9.00559C2.83994 9.33524 2.45543 9.80377 2.22836 10.3519C2.0013 10.9001 1.94189 11.5033 2.05765 12.0853C2.1734 12.6672 2.45912 13.2018 2.87868 13.6213C3.29824 14.0409 3.83279 14.3266 4.41473 14.4424C4.99667 14.5581 5.59987 14.4987 6.14805 14.2716C6.69623 14.0446 7.16477 13.6601 7.49441 13.1667C7.82406 12.6734 8 12.0933 8 11.5V0.5Z" fill="#8B1B1D"/>
</svg>
