<svg width="13" height="12" viewBox="0 0 13 12" fill="none" xmlns="http://www.w3.org/2000/svg">
<path fill-rule="evenodd" clip-rule="evenodd" d="M6.31322 3.42617L6.3414 3.90195L5.87174 3.84369C4.16217 3.62037 2.66865 2.863 1.40057 1.59102L0.780614 0.959879L0.620929 1.42595C0.282773 2.4649 0.498817 3.56211 1.20331 4.30006C1.57904 4.70787 1.4945 4.76613 0.846366 4.52338C0.620929 4.4457 0.423671 4.38744 0.404885 4.41657C0.339132 4.48454 0.56457 5.36814 0.743041 5.71769C0.987264 6.20318 1.4851 6.67896 2.02991 6.96055L2.49018 7.18387L1.94537 7.19358C1.41935 7.19358 1.40057 7.20329 1.45693 7.4072C1.64479 8.03834 2.38685 8.70831 3.21346 8.99961L3.79584 9.20351L3.2886 9.51423C2.53715 9.96088 1.65418 10.2133 0.77122 10.2328C0.348526 10.2425 0.000976562 10.2813 0.000976562 10.3104C0.000976562 10.4075 1.14695 10.9513 1.81387 11.1649C3.81462 11.796 6.19111 11.5242 7.97582 10.4464C9.2439 9.67929 10.512 8.15485 11.1038 6.67896C11.4231 5.89247 11.7425 4.45541 11.7425 3.76602C11.7425 3.31936 11.7707 3.2611 12.2967 2.72707C12.6067 2.41635 12.8979 2.07651 12.9542 1.97941C13.0482 1.79492 13.0388 1.79492 12.5597 1.95999C11.7613 2.25128 11.6486 2.21245 12.0431 1.7755C12.3343 1.46479 12.6818 0.90162 12.6818 0.736553C12.6818 0.707424 12.5409 0.755973 12.3812 0.843361C12.2122 0.940459 11.8364 1.08611 11.5546 1.17349L11.0474 1.33856L10.5871 1.01814C10.3335 0.843361 9.97657 0.649165 9.78871 0.590906C9.30965 0.454968 8.57698 0.474388 8.1449 0.629745C6.97074 1.06669 6.22868 2.19303 6.31322 3.42617Z" fill="#8B1B1D"/>
</svg>
