<svg width="24" height="18" viewBox="0 0 24 18" fill="none" xmlns="http://www.w3.org/2000/svg">
<path d="M21.8997 3.848C21.7844 3.38753 21.5497 2.96563 21.2192 2.62491C20.8887 2.28419 20.4741 2.03673 20.0174 1.9075C18.3486 1.5 11.6733 1.5 11.6733 1.5C11.6733 1.5 4.99797 1.5 3.32914 1.94631C2.8724 2.07553 2.45784 2.323 2.12735 2.66372C1.79685 3.00444 1.56212 3.42634 1.44687 3.8868C1.14145 5.58042 0.992051 7.29849 1.00055 9.01941C0.989668 10.7533 1.13907 12.4844 1.44687 14.1908C1.57393 14.637 1.81392 15.0428 2.14364 15.3692C2.47337 15.6955 2.88169 15.9313 3.32914 16.0537C4.99797 16.5 11.6733 16.5 11.6733 16.5C11.6733 16.5 18.3486 16.5 20.0174 16.0537C20.4741 15.9245 20.8887 15.677 21.2192 15.3363C21.5497 14.9956 21.7844 14.5737 21.8997 14.1132C22.2027 12.4323 22.3521 10.7274 22.346 9.01941C22.3569 7.28553 22.2074 5.55436 21.8997 3.848V3.848Z" stroke="#8B1B1D" stroke-width="1.5" stroke-linecap="round" stroke-linejoin="round"/>
<path d="M9.49023 12.1931L15.0691 9.02036L9.49023 5.84766V12.1931Z" stroke="#8B1B1D" stroke-width="1.5" stroke-linecap="round" stroke-linejoin="round"/>
</svg>
